<svg width="1220" height="197" viewBox="0 0 1220 197" fill="none" xmlns="http://www.w3.org/2000/svg">
<path d="M197 98.5C197 152.9 152.9 197 98.5 197C44.1 197 0 152.9 0 98.5C0 44.1 44.1 0 98.5 0C152.9 0 197 44.1 197 98.5Z" fill="#FF005C"/>
<path d="M192 112.5C192 155.854 156.854 191 113.5 191C70.1456 191 35 155.854 35 112.5C35 69.1456 70.1456 34 113.5 34C156.854 34 192 69.1456 192 112.5Z" fill="#FF5B0D"/>
<path d="M186 127C186 159.033 160.033 185 128 185C95.9675 185 70 159.033 70 127C70 94.9675 95.9675 69 128 69C160.033 69 186 94.9675 186 127Z" fill="#FFBE0B"/>
<path d="M1185.6 161.466V105.8H1197.4V151.719H1219.98V161.466H1185.6Z" fill="white"/>
<path d="M1165.84 161.466L1161.8 148.216H1141.51L1137.47 161.466H1124.75L1144.4 105.571H1158.83L1178.55 161.466H1165.84ZM1158.98 138.316L1154.95 125.371C1154.69 124.508 1154.35 123.403 1153.92 122.058C1153.51 120.687 1153.09 119.304 1152.66 117.908C1152.26 116.486 1151.93 115.255 1151.67 114.214C1151.42 115.255 1151.06 116.55 1150.61 118.098C1150.18 119.621 1149.76 121.068 1149.35 122.439C1148.94 123.809 1148.65 124.787 1148.47 125.371L1144.48 138.316H1158.98Z" fill="white"/>
<path d="M1105.94 161.466V105.8H1117.75V161.466H1105.94Z" fill="white"/>
<path d="M1079.86 114.824C1077.6 114.824 1075.6 115.268 1073.85 116.156C1072.12 117.019 1070.66 118.276 1069.47 119.926C1068.3 121.576 1067.41 123.568 1066.8 125.904C1066.19 128.239 1065.89 130.866 1065.89 133.785C1065.89 137.72 1066.37 141.083 1067.34 143.875C1068.32 146.642 1069.85 148.762 1071.9 150.234C1073.96 151.681 1076.61 152.404 1079.86 152.404C1082.12 152.404 1084.38 152.151 1086.64 151.643C1088.92 151.135 1091.4 150.412 1094.06 149.473V159.372C1091.6 160.388 1089.18 161.111 1086.79 161.543C1084.41 161.999 1081.73 162.228 1078.76 162.228C1073.02 162.228 1068.3 161.048 1064.59 158.687C1060.91 156.301 1058.18 152.976 1056.41 148.711C1054.63 144.421 1053.74 139.421 1053.74 133.709C1053.74 129.495 1054.31 125.637 1055.46 122.134C1056.6 118.631 1058.27 115.598 1060.48 113.034C1062.69 110.47 1065.42 108.49 1068.67 107.094C1071.92 105.698 1075.65 105 1079.86 105C1082.63 105 1085.4 105.355 1088.16 106.066C1090.95 106.751 1093.62 107.703 1096.16 108.922L1092.35 118.517C1090.27 117.527 1088.18 116.664 1086.07 115.928C1083.96 115.192 1081.89 114.824 1079.86 114.824Z" fill="white"/>
<path d="M1030.4 161.466V105.8H1042.21V161.466H1030.4Z" fill="white"/>
<path d="M999.217 161.466H987.604V105.8H1019.51V115.471H999.217V129.825H1018.1V139.459H999.217V161.466Z" fill="white"/>
<path d="M961.789 161.466V105.8H973.592V161.466H961.789Z" fill="white"/>
<path d="M938.106 161.466H926.302V115.623H911.186V105.8H953.222V115.623H938.106V161.466Z" fill="white"/>
<path d="M881.373 105.8C886.424 105.8 890.587 106.409 893.862 107.627C897.162 108.846 899.611 110.686 901.21 113.148C902.81 115.61 903.609 118.72 903.609 122.477C903.609 125.015 903.127 127.236 902.162 129.14C901.198 131.044 899.928 132.656 898.355 133.976C896.781 135.296 895.08 136.374 893.253 137.212L909.625 161.466H896.527L883.239 140.106H876.956V161.466H865.153V105.8H881.373ZM880.535 115.471H876.956V130.511H880.764C884.673 130.511 887.465 129.863 889.14 128.569C890.841 127.249 891.691 125.32 891.691 122.781C891.691 120.141 890.778 118.263 888.95 117.146C887.148 116.029 884.343 115.471 880.535 115.471Z" fill="white"/>
<path d="M845.391 161.466L841.355 148.216H821.061L817.025 161.466H804.307L823.955 105.571H838.385L858.109 161.466H845.391ZM838.538 138.316L834.502 125.371C834.248 124.508 833.905 123.403 833.474 122.058C833.067 120.687 832.649 119.304 832.217 117.908C831.811 116.486 831.481 115.255 831.227 114.214C830.973 115.255 830.618 116.55 830.161 118.098C829.729 119.621 829.311 121.068 828.904 122.439C828.498 123.809 828.206 124.787 828.029 125.371L824.031 138.316H838.538Z" fill="white"/>
<path d="M771.296 161.466L767.26 148.216H746.965L742.929 161.466H730.212L749.859 105.571H764.29L784.013 161.466H771.296ZM764.442 138.316L760.406 125.371C760.152 124.508 759.81 123.403 759.378 122.058C758.972 120.687 758.553 119.304 758.122 117.908C757.715 116.486 757.385 115.255 757.132 114.214C756.878 115.255 756.522 116.55 756.065 118.098C755.634 119.621 755.215 121.068 754.809 122.439C754.403 123.809 754.111 124.787 753.933 125.371L749.935 138.316H764.442Z" fill="white"/>
<path d="M711.402 161.466V105.8H723.206V161.466H711.402Z" fill="white"/>
<path d="M685.321 114.824C683.061 114.824 681.056 115.268 679.305 116.156C677.579 117.019 676.119 118.276 674.926 119.926C673.758 121.576 672.87 123.568 672.261 125.904C671.651 128.239 671.347 130.866 671.347 133.785C671.347 137.72 671.829 141.083 672.794 143.875C673.784 146.642 675.307 148.762 677.363 150.234C679.419 151.681 682.071 152.404 685.321 152.404C687.58 152.404 689.839 152.151 692.098 151.643C694.383 151.135 696.858 150.412 699.523 149.473V159.372C697.061 160.388 694.636 161.111 692.25 161.543C689.864 161.999 687.186 162.228 684.216 162.228C678.48 162.228 673.758 161.048 670.052 158.687C666.372 156.301 663.643 152.976 661.866 148.711C660.089 144.421 659.201 139.421 659.201 133.709C659.201 129.495 659.772 125.637 660.914 122.134C662.056 118.631 663.732 115.598 665.94 113.034C668.148 110.47 670.877 108.49 674.126 107.094C677.375 105.698 681.107 105 685.321 105C688.087 105 690.854 105.355 693.621 106.066C696.413 106.751 699.079 107.703 701.617 108.922L697.809 118.517C695.728 117.527 693.634 116.664 691.527 115.928C689.42 115.192 687.351 114.824 685.321 114.824Z" fill="white"/>
<path d="M647.626 161.466H632.624L608.407 119.355H608.065C608.166 121.106 608.255 122.87 608.331 124.647C608.407 126.424 608.484 128.201 608.56 129.978C608.636 131.729 608.712 133.493 608.788 135.27V161.466H598.241V105.8H613.129L637.307 147.493H637.574C637.523 145.766 637.459 144.053 637.383 142.352C637.307 140.652 637.231 138.951 637.155 137.25C637.104 135.549 637.053 133.849 637.002 132.148V105.8H647.626V161.466Z" fill="white"/>
<path d="M586.59 161.466H554.53V105.8H586.59V115.471H566.334V127.693H585.181V137.364H566.334V151.719H586.59V161.466Z" fill="white"/>
<path d="M519.158 130.206H541.242V159.068C538.323 160.032 535.289 160.806 532.142 161.39C528.994 161.949 525.428 162.228 521.442 162.228C515.909 162.228 511.213 161.136 507.354 158.953C503.496 156.77 500.564 153.547 498.559 149.282C496.553 145.018 495.551 139.776 495.551 133.557C495.551 127.719 496.668 122.667 498.901 118.403C501.161 114.138 504.448 110.838 508.763 108.503C513.104 106.168 518.396 105 524.641 105C527.585 105 530.492 105.317 533.36 105.952C536.228 106.586 538.83 107.411 541.166 108.427L537.244 117.87C535.543 117.007 533.601 116.283 531.418 115.699C529.235 115.115 526.951 114.824 524.565 114.824C521.138 114.824 518.155 115.61 515.617 117.184C513.104 118.758 511.149 120.966 509.753 123.809C508.382 126.627 507.697 129.952 507.697 133.785C507.697 137.415 508.192 140.639 509.182 143.457C510.172 146.249 511.733 148.444 513.865 150.044C515.998 151.617 518.777 152.404 522.204 152.404C523.879 152.404 525.288 152.328 526.43 152.176C527.598 151.998 528.689 151.821 529.705 151.643V140.03H519.158V130.206Z" fill="white"/>
<path d="M472.21 161.466V105.8H484.014V161.466H472.21Z" fill="white"/>
<path d="M428.119 161.466V105.8H439.922V151.719H462.501V161.466H428.119Z" fill="white"/>
<path d="M416.467 161.466H384.408V105.8H416.467V115.471H396.211V127.693H415.059V137.364H396.211V151.719H416.467V161.466Z" fill="white"/>
<path d="M360.724 161.466H348.921V115.623H333.805V105.8H375.841V115.623H360.724V161.466Z" fill="white"/>
<path d="M325.2 161.466H310.198L285.982 119.355H285.639C285.74 121.106 285.829 122.87 285.905 124.647C285.982 126.424 286.058 128.201 286.134 129.978C286.21 131.729 286.286 133.493 286.362 135.27V161.466H275.815V105.8H290.703L314.881 147.493H315.148C315.097 145.766 315.033 144.053 314.957 142.352C314.881 140.652 314.805 138.951 314.729 137.25C314.678 135.549 314.627 133.849 314.577 132.148V105.8H325.2V161.466Z" fill="white"/>
<path d="M250 161.466V105.8H261.803V161.466H250Z" fill="white"/>
<path d="M850.22 80.389H823.504V34H850.22V42.0594H833.34V52.2447H849.046V60.304H833.34V72.2662H850.22V80.389Z" fill="white"/>
<path d="M813.89 56.7503C813.89 61.9751 812.885 66.3433 810.875 69.8547C808.887 73.345 805.999 75.9786 802.213 77.7554C798.427 79.5112 793.868 80.389 788.537 80.389H775.401V34H789.965C794.831 34 799.051 34.8673 802.625 36.6018C806.2 38.3153 808.971 40.8642 810.939 44.2487C812.906 47.6121 813.89 51.7793 813.89 56.7503ZM803.673 57.0041C803.673 53.5773 803.165 50.7639 802.15 48.564C801.155 46.3429 799.675 44.7035 797.707 43.6459C795.761 42.5882 793.35 42.0594 790.473 42.0594H785.237V72.2662H789.458C794.259 72.2662 797.824 70.9864 800.151 68.4269C802.499 65.8673 803.673 62.0597 803.673 57.0041Z" fill="white"/>
<path d="M714.861 34H729.298C735.475 34 740.149 34.8673 743.322 36.6018C746.495 38.3364 748.082 41.3825 748.082 45.74C748.082 47.4958 747.796 49.0822 747.225 50.4995C746.675 51.9168 745.871 53.0802 744.814 53.9898C743.756 54.8994 742.466 55.4917 740.943 55.7667V56.084C742.487 56.4013 743.883 56.9512 745.131 57.7339C746.379 58.4954 747.373 59.6165 748.114 61.0973C748.875 62.5568 749.256 64.5029 749.256 66.9356C749.256 69.7489 748.568 72.1604 747.193 74.17C745.818 76.1795 743.851 77.7237 741.292 78.8025C738.753 79.8602 735.728 80.389 732.217 80.389H714.861V34ZM724.697 52.3716H730.408C733.264 52.3716 735.242 51.9274 736.342 51.0389C737.442 50.1293 737.992 48.7967 737.992 47.041C737.992 45.2641 737.336 43.9949 736.025 43.2334C734.734 42.4507 732.682 42.0594 729.869 42.0594H724.697V52.3716ZM724.697 60.1771V72.2662H731.106C734.068 72.2662 736.13 71.695 737.294 70.5528C738.457 69.4105 739.039 67.8769 739.039 65.9519C739.039 64.8097 738.785 63.8049 738.277 62.9376C737.77 62.0703 736.913 61.3934 735.707 60.9069C734.523 60.4204 732.883 60.1771 730.789 60.1771H724.697Z" fill="white"/>
<path d="M703.501 34V64.0164C703.501 67.2106 702.793 70.098 701.376 72.6787C699.979 75.2382 697.854 77.2689 694.998 78.7708C692.163 80.2727 688.588 81.0236 684.273 81.0236C678.139 81.0236 673.464 79.4583 670.249 76.3276C667.033 73.1969 665.426 69.0509 665.426 63.8895V34H675.23V62.3982C675.23 66.2269 676.013 68.9134 677.578 70.4576C679.144 72.0018 681.46 72.7739 684.527 72.7739C686.685 72.7739 688.43 72.4037 689.762 71.6633C691.116 70.9229 692.11 69.7807 692.745 68.2365C693.38 66.6923 693.697 64.7251 693.697 62.3347V34H703.501Z" fill="white"/>
<path d="M654.003 80.389H644.198V60.3675H625.827V80.389H615.991V34H625.827V52.1812H644.198V34H654.003V80.389Z" fill="white"/>
<path fill-rule="evenodd" clip-rule="evenodd" d="M590 57H250V51H590V57Z" fill="white"/>
<path fill-rule="evenodd" clip-rule="evenodd" d="M1220 57H880V51H1220V57Z" fill="white"/>
</svg>
