<svg width="1663" height="787" viewBox="0 0 1663 787" fill="none" xmlns="http://www.w3.org/2000/svg">
<g clip-path="url(#clip0_13_106)">
<path d="M530.287 781.46C527.156 744.91 501.67 692.4 495.968 642.07C534.378 606.14 492.857 501.5 469.962 500.37C446.876 496.13 426.87 491.89 389.941 490.6C344.339 489.01 303.088 494.49 287.814 496.69C230.73 524.94 199.672 690.69 237.291 723.38C244.413 729.57 255.886 735.77 269.94 741.55C268.739 755.55 267.939 769.55 267.939 782.55L530.287 781.46Z" fill="#2E186A"/>
<path d="M347.46 496.29L355.712 446.65L417.728 469.92L420.109 505.2C411.726 566.8 345.639 507.21 347.46 496.29Z" fill="white" stroke="#2E186A" stroke-width="6" stroke-linecap="round" stroke-linejoin="round"/>
<path d="M433.662 353.31C433.662 353.31 386.1 383.11 409.106 411.25C409.106 411.25 419.358 423.01 427.851 420.71C427.851 420.71 421.649 410.71 428.851 405.59C428.851 405.59 431.001 435.48 455.498 429.44C455.498 429.44 446.495 416.19 448.966 400.34C454.017 367.26 446.415 347.38 433.662 353.31Z" fill="#2E186A"/>
<path d="M335.147 400.42C335.147 400.42 326.084 342.07 385.1 332C390.601 331.06 428.331 325.41 435.203 356.69C439.794 377.59 440.664 400.27 440.104 417.89C440.104 417.99 439.534 451.16 426.42 469.59C413.307 488.02 384.249 486.3 368.885 477.22C353.521 468.14 350.711 463.41 346.41 452.64C342.108 441.87 335.197 400.52 335.197 400.52L335.147 400.42Z" fill="white" stroke="#2E186A" stroke-width="6" stroke-linecap="round" stroke-linejoin="round"/>
<path d="M415.818 404.98L421.279 431.88H411.206" stroke="#2E186A" stroke-width="6" stroke-linecap="round" stroke-linejoin="round"/>
<path d="M431.149 402.73C431.174 400.189 429.864 398.117 428.224 398.101C426.583 398.085 425.233 400.131 425.208 402.671C425.183 405.212 426.493 407.284 428.134 407.3C429.774 407.316 431.125 405.27 431.149 402.73Z" fill="#2E186A"/>
<path d="M402.699 403.576C403.199 401.085 402.3 398.804 400.691 398.482C399.083 398.159 397.374 399.917 396.874 402.408C396.374 404.899 397.273 407.18 398.882 407.502C400.491 407.825 402.2 406.067 402.699 403.576Z" fill="#2E186A"/>
<path d="M384.169 385.13C385.61 383.163 387.553 381.62 389.795 380.661C392.037 379.702 394.495 379.363 396.913 379.68" stroke="#2E186A" stroke-width="6" stroke-linecap="round" stroke-linejoin="round"/>
<path d="M422.879 377.43C422.879 377.43 433.112 372.84 437.613 379" stroke="#2E186A" stroke-width="6" stroke-linecap="round" stroke-linejoin="round"/>
<path d="M381.459 356.93C381.459 356.93 403.764 435.11 351.751 443.15C351.751 443.15 321.453 448.5 314.531 437.8C314.531 437.8 336.487 426.14 333.726 413.61C333.726 413.61 309.04 440.67 287.554 421.25C287.554 421.25 323.414 415.25 320.233 383.01C317.952 359.88 373.467 338.17 381.459 356.93Z" fill="#2E186A"/>
<path d="M286.394 367.94L318.082 363.15C321.363 341.82 333.786 311.28 377.518 306.21C445.845 298.27 447.886 364.75 447.886 364.75L289.505 388.35C288.164 388.553 286.797 388.49 285.481 388.164C284.165 387.839 282.926 387.258 281.834 386.454C280.743 385.649 279.821 384.638 279.12 383.478C278.42 382.317 277.955 381.03 277.752 379.69C277.549 378.35 277.612 376.983 277.937 375.667C278.263 374.351 278.844 373.113 279.649 372.021C280.453 370.93 281.465 370.008 282.625 369.308C283.786 368.608 285.074 368.143 286.414 367.94H286.394Z" fill="#FE7624"/>
<path d="M394.302 438.73C394.302 438.73 398.623 448.85 412.897 446.6" stroke="#2E186A" stroke-width="6" stroke-linecap="round" stroke-linejoin="round"/>
<path d="M549.032 561.34V527.06C549.032 520.358 546.369 513.93 541.629 509.191C536.888 504.452 530.459 501.79 523.755 501.79H513.893C513.998 510.112 512.449 518.373 509.336 526.092C506.223 533.811 501.608 540.835 495.758 546.757C489.909 552.68 482.942 557.382 475.26 560.591C467.579 563.8 459.337 565.453 451.012 565.453C442.687 565.453 434.444 563.8 426.763 560.591C419.082 557.382 412.114 552.68 406.265 546.757C400.415 540.835 395.8 533.811 392.687 526.092C389.574 518.373 388.025 510.112 388.13 501.79H378.268C371.565 501.793 365.137 504.456 360.398 509.194C355.658 513.933 352.994 520.359 352.991 527.06V709.76C352.999 716.457 355.666 722.877 360.405 727.609C365.145 732.342 371.569 735 378.268 735H523.755C530.459 735 536.888 732.338 541.629 727.599C546.369 722.86 549.032 716.432 549.032 709.73V687.07C565.572 686.861 581.363 680.146 592.986 668.38C604.608 656.613 611.125 640.742 611.125 624.205C611.125 607.668 604.608 591.797 592.986 580.03C581.363 568.264 565.572 561.549 549.032 561.34Z" fill="#FEBA91"/>
<path d="M531.758 726.46C531.617 726.03 509.672 700.46 508.932 701C508.191 701.54 478.124 715 477.463 716.05C476.803 717.1 475.653 723.14 478.684 728.78C481.715 734.42 485.045 747.28 498.639 748.29C512.232 749.3 531.758 726.46 531.758 726.46Z" fill="white"/>
<path d="M491.627 706.9C491.627 706.9 489.066 689.23 493.128 685C497.189 680.77 520.135 720 528.027 722.72" fill="white"/>
<path d="M491.627 706.9C491.627 706.9 489.066 689.23 493.128 685C497.189 680.77 520.135 720 528.027 722.72" stroke="#2E186A" stroke-width="6" stroke-linecap="round" stroke-linejoin="round"/>
<path d="M479.444 710C479.444 710 473.983 697.1 481.214 690.86C488.446 684.62 506.281 719.92 514.113 724.49" fill="white"/>
<path d="M479.444 710C479.444 710 473.983 697.1 481.214 690.86C488.446 684.62 506.281 719.92 514.113 724.49" stroke="#2E186A" stroke-width="6" stroke-linecap="round" stroke-linejoin="round"/>
<path d="M476.203 724.81C476.203 724.81 466.961 701.7 473.402 696.81C479.844 691.92 490.287 721.89 502.81 728.81" fill="white"/>
<path d="M476.203 724.81C476.203 724.81 466.961 701.7 473.402 696.81C479.844 691.92 490.287 721.89 502.81 728.81" stroke="#2E186A" stroke-width="6" stroke-linecap="round" stroke-linejoin="round"/>
<path d="M526.396 721.84C527.428 716.859 526.915 711.682 524.926 707C522.655 701.65 519.924 694.37 519.684 689.72C519.234 681.62 532.488 685.42 533.038 690.45C533.588 695.48 536.109 695.19 541.91 700.31C547.712 705.43 546.651 725.85 546.651 725.85C546.651 725.85 551.753 736.32 535.308 748.85C518.864 761.38 501.3 751.63 501.3 751.63C501.3 751.63 469.521 739.89 469.531 717C469.541 694.11 477.964 727.48 493.868 736.87" fill="white"/>
<path d="M526.396 721.84C527.428 716.859 526.915 711.682 524.926 707C522.655 701.65 519.924 694.37 519.684 689.72C519.234 681.62 532.488 685.42 533.038 690.45C533.588 695.48 536.109 695.19 541.91 700.31C547.712 705.43 546.651 725.85 546.651 725.85C546.651 725.85 551.753 736.32 535.308 748.85C518.864 761.38 501.3 751.63 501.3 751.63C501.3 751.63 469.521 739.89 469.531 717C469.541 694.11 477.964 727.48 493.868 736.87" stroke="#2E186A" stroke-width="6" stroke-linecap="round" stroke-linejoin="round"/>
<path d="M354.462 726.46C354.612 726.03 376.547 700.46 377.288 701C378.028 701.54 408.096 715 408.756 716.05C409.416 717.1 410.576 723.14 407.535 728.78C404.495 734.42 401.174 747.28 387.58 748.29C373.987 749.3 354.462 726.46 354.462 726.46Z" fill="white"/>
<path d="M394.602 706.9C394.602 706.9 397.153 689.23 393.102 685C389.051 680.77 366.095 720 358.203 722.72" fill="white"/>
<path d="M394.602 706.9C394.602 706.9 397.153 689.23 393.102 685C389.051 680.77 366.095 720 358.203 722.72" stroke="#2E186A" stroke-width="6" stroke-linecap="round" stroke-linejoin="round"/>
<path d="M406.775 710C406.775 710 412.247 697.1 405.005 690.86C397.763 684.62 379.938 719.91 372.096 724.48" fill="white"/>
<path d="M406.775 710C406.775 710 412.247 697.1 405.005 690.86C397.763 684.62 379.938 719.91 372.096 724.48" stroke="#2E186A" stroke-width="6" stroke-linecap="round" stroke-linejoin="round"/>
<path d="M410.016 724.81C410.016 724.81 419.258 701.7 412.827 696.81C406.395 691.92 395.932 721.89 383.419 728.81" fill="white"/>
<path d="M410.016 724.81C410.016 724.81 419.258 701.7 412.827 696.81C406.395 691.92 395.932 721.89 383.419 728.81" stroke="#2E186A" stroke-width="6" stroke-linecap="round" stroke-linejoin="round"/>
<path d="M359.823 721.84C358.797 716.859 359.31 711.683 361.293 707C363.564 701.65 366.295 694.37 366.535 689.72C366.985 681.62 353.741 685.42 353.181 690.45C352.621 695.48 350.111 695.19 344.309 700.31C338.508 705.43 339.568 725.85 339.568 725.85C339.568 725.85 334.467 736.32 350.911 748.85C367.355 761.38 384.92 751.63 384.92 751.63C384.92 751.63 416.708 739.89 416.698 717C416.688 694.11 408.256 727.48 392.351 736.87" fill="white"/>
<path d="M359.823 721.84C358.797 716.859 359.31 711.683 361.293 707C363.564 701.65 366.295 694.37 366.535 689.72C366.985 681.62 353.741 685.42 353.181 690.45C352.621 695.48 350.111 695.19 344.309 700.31C338.508 705.43 339.568 725.85 339.568 725.85C339.568 725.85 334.467 736.32 350.911 748.85C367.355 761.38 384.92 751.63 384.92 751.63C384.92 751.63 416.708 739.89 416.698 717C416.688 694.11 408.256 727.48 392.351 736.87" stroke="#2E186A" stroke-width="6" stroke-linecap="round" stroke-linejoin="round"/>
<path d="M885.099 496.53L818.262 486L811.08 463.3C823.553 455.36 865.614 459.14 898.362 471.23L885.099 496.58" fill="#2E186A"/>
<path d="M994.707 622.88L944.974 506.67C941.783 499.47 935.082 494.14 926.97 491.99C922.781 490.05 918.286 488.855 913.686 488.46L896.822 487.05L898.332 471.18C898.332 471.18 895.982 476.89 877.427 480.37C852.34 485.08 811.05 463.25 811.05 463.25V487.85L785.473 487.12C774.47 486.8 753.115 485.93 740.752 510.41L680.626 661.33C669.973 680.82 675.485 709.67 693.189 724.53L728.298 744L725.037 783L990.736 782.09L989.256 747.48C1069.97 697.37 994.707 622.88 994.707 622.88Z" fill="#5D21D1"/>
<path d="M777.301 666.43C777.301 666.43 750.934 633.83 710.684 662.62" stroke="white" stroke-width="6" stroke-linecap="round" stroke-linejoin="round"/>
<path d="M777.301 660.7C776.871 659.83 761.297 624.53 717.535 647.27" stroke="white" stroke-width="6" stroke-linecap="round" stroke-linejoin="round"/>
<path d="M932.511 666.43C932.511 666.43 956.517 623.67 1002.39 653.24" stroke="white" stroke-width="6" stroke-linecap="round" stroke-linejoin="round"/>
<path d="M929.52 658.32C929.52 658.32 942.344 625.19 984.835 632.94" stroke="white" stroke-width="6" stroke-linecap="round" stroke-linejoin="round"/>
<path d="M820.142 485.09V417.93L879.117 453.46L877.737 489.54L820.142 485.09Z" fill="white" stroke="#2E186A" stroke-width="6" stroke-linecap="round" stroke-linejoin="round"/>
<path d="M898.232 345.93C874.226 329.31 852.58 323.22 818.712 366.62L814.08 395.19C799.847 390.9 792.345 397.84 795.446 410.25C798.777 423.62 806.529 429.63 819.452 426.15C825.623 440.15 837.306 456.26 859.022 460.96C893.031 468.33 900.883 447.29 904.674 439.02C908.465 430.75 922.238 362.56 898.232 345.93Z" fill="white" stroke="#2E186A" stroke-width="6" stroke-linecap="round" stroke-linejoin="round"/>
<path d="M886.909 398.27L889.85 423.85L880.288 423.61" stroke="#2E186A" stroke-width="6" stroke-linecap="round" stroke-linejoin="round"/>
<path d="M898.022 402.61C899.597 402.61 900.873 400.636 900.873 398.2C900.873 395.764 899.597 393.79 898.022 393.79C896.448 393.79 895.171 395.764 895.171 398.2C895.171 400.636 896.448 402.61 898.022 402.61Z" fill="#2E186A"/>
<path d="M870.545 402.13C872.12 402.13 873.396 400.156 873.396 397.72C873.396 395.284 872.12 393.31 870.545 393.31C868.971 393.31 867.694 395.284 867.694 397.72C867.694 400.156 868.971 402.13 870.545 402.13Z" fill="#2E186A"/>
<path d="M895.932 372.51C895.932 372.51 903.854 370.45 905.834 376.92" stroke="#2E186A" stroke-width="6" stroke-linecap="round" stroke-linejoin="round"/>
<path d="M868.134 429.09C868.134 429.09 877.307 432.42 885.069 431.09C885.069 431.09 882.158 444.36 874.676 442.75C867.194 441.14 868.134 429.09 868.134 429.09Z" fill="#2E186A"/>
<path d="M772.99 315.25C757.736 285.4 733.19 282.79 704.862 288.42C676.535 294.05 660.721 332.12 659.731 335.65C648.178 376.82 663.472 420.83 697.44 446.81C701.211 449.68 704.982 452.6 708.593 455.42C728.598 471.05 684.337 484.42 684.337 484.42C769.049 491.21 750.574 406.42 748.774 398.94C775.881 388.59 787.204 343 772.99 315.25Z" fill="#2E186A"/>
<path d="M761.959 337.911C755.042 335.214 747.249 338.633 744.553 345.546C741.857 352.459 745.279 360.249 752.196 362.945L801.253 382.067C808.171 384.763 815.964 381.345 818.66 374.431C821.356 367.518 817.934 359.728 811.016 357.032L761.959 337.911Z" fill="#FE7624"/>
<path d="M922.028 375.12C921.728 354.34 916.737 336.12 904.184 324.12C902.202 321.835 899.806 319.945 897.122 318.55C886.879 311.92 872.976 308.37 854.531 309.03C854.138 309.055 853.754 309.157 853.401 309.33C850.511 309.594 847.639 310.021 844.798 310.61C843.24 310.856 841.702 311.217 840.197 311.69C835.11 313.067 830.153 314.887 825.383 317.13C784.013 334.92 767.729 367 786.203 411.31C795.746 434.15 808.129 441.5 820.102 441.52V427.69C819.102 425.49 817.391 426.34 817.391 426.34C804.508 429.82 798.747 423.62 795.386 410.25C793.765 403.79 795.036 398.82 798.616 396.14L798.897 395.93C799.037 395.83 799.187 395.74 799.337 395.65L799.627 395.47L800.117 395.21L800.407 395.08C800.586 394.99 800.769 394.91 800.957 394.84L801.227 394.74C801.427 394.67 801.637 394.59 801.847 394.53H802.037C803.204 394.199 804.406 394.014 805.618 393.98H805.708C806.008 393.98 806.318 393.98 806.639 393.98H806.819C807.129 393.98 807.449 393.98 807.759 393.98H807.969L808.969 394.08H809.119C810.782 394.309 812.425 394.67 814.031 395.16C815.131 395.49 814.321 396.01 815.511 396.48L818.512 396.27C819.512 396.27 820.592 396.17 821.692 396.04C847.809 392.9 888.38 374.22 902.833 350.22C913.036 362.58 914.146 386.95 912.276 407.48C918.668 397.9 922.063 386.635 922.028 375.12Z" fill="#2E186A"/>
<path d="M859.432 372.4C860.871 370.554 862.779 369.129 864.958 368.272C867.136 367.415 869.504 367.159 871.815 367.53" stroke="#FFFDFD" stroke-width="6" stroke-linecap="round" stroke-linejoin="round"/>
<path d="M939.673 557L933.381 523.62C932.781 520.384 931.547 517.298 929.75 514.54C927.953 511.782 925.63 509.405 922.912 507.547C920.195 505.689 917.137 504.385 913.915 503.712C910.692 503.038 907.368 503.007 904.134 503.62L894.531 505.43C893.068 497.343 890.017 489.625 885.557 482.722C881.096 475.819 875.313 469.866 868.541 465.207C861.769 460.548 854.142 457.275 846.099 455.576C838.056 453.878 829.756 453.787 821.678 455.31C813.599 456.832 805.902 459.938 799.03 464.448C792.158 468.958 786.246 474.783 781.636 481.587C777.025 488.392 773.807 496.041 772.167 504.094C770.527 512.147 770.497 520.445 772.08 528.51L762.477 530.32C759.24 530.921 756.154 532.154 753.395 533.95C750.636 535.746 748.259 538.069 746.4 540.786C744.541 543.503 743.238 546.56 742.564 549.782C741.889 553.003 741.858 556.326 742.472 559.56L748.764 592.94C764.946 590.012 781.63 593.6 795.178 602.92C808.726 612.241 818.039 626.538 821.085 642.694C824.132 658.851 820.666 675.557 811.443 689.169C802.22 702.781 787.988 712.196 771.85 715.36L776.021 737.45C776.621 740.686 777.855 743.772 779.652 746.53C781.449 749.288 783.772 751.665 786.49 753.523C789.207 755.381 792.265 756.685 795.487 757.358C798.71 758.032 802.034 758.064 805.268 757.45L946.925 730.75C950.162 730.149 953.248 728.916 956.007 727.12C958.766 725.324 961.143 723.001 963.002 720.284C964.861 717.567 966.164 714.51 966.838 711.289C967.513 708.067 967.544 704.744 966.93 701.51L962.769 679.41C954.729 680.926 946.47 680.844 938.462 679.169C930.454 677.494 922.854 674.258 916.097 669.647C909.34 665.036 903.557 659.139 899.08 652.293C894.602 645.448 891.517 637.788 890 629.75C888.484 621.712 888.566 613.455 890.241 605.449C891.917 597.443 895.153 589.846 899.766 583.09C904.378 576.335 910.277 570.554 917.124 566.077C923.971 561.6 931.633 558.516 939.673 557Z" fill="#FEBA91"/>
<path d="M805.488 734.06C819.002 743.65 820.762 736.38 816.801 731.73C811.8 725.92 788.304 707.39 788.304 707.39C788.304 707.39 807.179 713.01 811.8 702.39C816.421 691.77 811.37 689.68 804.258 693.29C797.146 696.9 775.05 683.88 775.05 683.88L767.809 677.23C767.809 677.23 743.502 669.41 737.251 696.29C735.836 700.704 735.577 705.408 736.498 709.951C737.419 714.494 739.49 718.725 742.512 722.24C745.403 725.51 755.415 738.54 787.154 754.39C787.154 754.39 802.037 759.92 790.895 749.17C788.13 746.519 785.193 744.053 782.102 741.79" fill="white"/>
<path d="M805.488 734.06C819.002 743.65 820.762 736.38 816.801 731.73C811.8 725.92 788.304 707.39 788.304 707.39C788.304 707.39 807.179 713.01 811.8 702.39C816.421 691.77 811.37 689.68 804.258 693.29C797.146 696.9 775.05 683.88 775.05 683.88L767.809 677.23C767.809 677.23 743.502 669.41 737.251 696.29C735.836 700.704 735.577 705.408 736.498 709.951C737.419 714.494 739.49 718.725 742.512 722.24C745.403 725.51 755.415 738.54 787.154 754.39C787.154 754.39 802.037 759.92 790.895 749.17C788.13 746.519 785.193 744.053 782.102 741.79" stroke="#2E186A" stroke-width="6" stroke-linecap="round" stroke-linejoin="round"/>
<path d="M784.363 719.62C789.094 723.13 808.859 734.23 813.58 741.31C818.302 748.39 812.39 750.75 795.496 738.54" fill="white"/>
<path d="M784.363 719.62C789.094 723.13 808.859 734.23 813.58 741.31C818.302 748.39 812.39 750.75 795.496 738.54" stroke="#2E186A" stroke-width="6" stroke-linecap="round" stroke-linejoin="round"/>
<path d="M777.051 727.22C777.571 728.08 809.989 745.62 807.889 750.22C806.158 753.98 801.537 754.22 783.613 742.82L769.219 732.82" fill="white"/>
<path d="M777.051 727.22C777.571 728.08 809.989 745.62 807.889 750.22C806.158 753.98 801.537 754.22 783.613 742.82L769.219 732.82" stroke="#2E186A" stroke-width="6" stroke-linecap="round" stroke-linejoin="round"/>
<path d="M923.829 704.06C908.075 709.18 908.565 701.72 913.726 698.46C920.238 694.39 948.245 683.74 948.245 683.74C948.245 683.74 928.55 683.46 927.32 671.91C926.089 660.36 931.531 659.91 937.242 665.47C942.954 671.03 967.93 665.22 967.93 665.22L976.833 661.03C976.833 661.03 1002.36 660.81 1000.3 688.33C1000.33 692.967 999.173 697.536 996.937 701.599C994.701 705.662 991.461 709.085 987.525 711.54C983.794 713.8 970.351 723.24 935.322 728.89C935.322 728.89 919.458 729.73 933.321 722.79C936.754 721.087 940.296 719.613 943.924 718.38" fill="white"/>
<path d="M923.829 704.06C908.075 709.18 908.565 701.72 913.726 698.46C920.238 694.39 948.245 683.74 948.245 683.74C948.245 683.74 928.55 683.46 927.32 671.91C926.089 660.36 931.531 659.91 937.242 665.47C942.954 671.03 967.93 665.22 967.93 665.22L976.833 661.03C976.833 661.03 1002.36 660.81 1000.3 688.33C1000.33 692.967 999.173 697.536 996.937 701.599C994.701 705.662 991.461 709.085 987.525 711.54C983.794 713.8 970.351 723.24 935.322 728.89C935.322 728.89 919.458 729.73 933.321 722.79C936.754 721.087 940.296 719.613 943.924 718.38" stroke="#2E186A" stroke-width="6" stroke-linecap="round" stroke-linejoin="round"/>
<path d="M948.305 696.58C942.744 698.52 920.558 703.21 913.946 708.58C907.335 713.95 912.266 717.94 932.031 711.34" fill="white"/>
<path d="M948.305 696.58C942.744 698.52 920.558 703.21 913.946 708.58C907.335 713.95 912.266 717.94 932.031 711.34" stroke="#2E186A" stroke-width="6" stroke-linecap="round" stroke-linejoin="round"/>
<path d="M953.016 706C952.256 706.66 916.087 713.73 916.717 718.74C917.237 722.84 921.598 724.4 942.094 718.92L958.838 713.63" fill="white"/>
<path d="M953.016 706C952.256 706.66 916.087 713.73 916.717 718.74C917.237 722.84 921.598 724.4 942.094 718.92L958.838 713.63" stroke="#2E186A" stroke-width="6" stroke-linecap="round" stroke-linejoin="round"/>
<path d="M1477.21 572C1477.47 517.38 1397.79 498.6 1397.79 498.6C1403.79 471.46 1401.04 404.44 1287.48 424.94C1229.32 435 1212.86 465.53 1225.23 490.28C1202.6 501.5 1146.13 582.43 1146.13 582.43L1147.19 651.99C1142.88 651.092 1138.49 650.629 1134.09 650.61C1116.92 650.541 1100.43 657.291 1088.24 669.377C1076.05 681.463 1069.15 697.895 1069.08 715.06C1068.93 750.81 1100.82 782.79 1136.58 782.94C1140.82 782.961 1145.04 782.522 1149.18 781.63V782.95L1457.93 782.15C1457.93 782.15 1459.39 720.29 1452.02 654.63C1464.94 625 1477.12 591.86 1477.21 572Z" fill="#FE7624"/>
<path d="M1347.75 465.32L1368.35 476.73C1368.35 476.73 1314.75 499.87 1305.07 606.73C1298.78 676.16 1303.78 784.45 1303.78 784.45L1268.35 783.9C1268.35 783.9 1277.9 569.19 1262.46 534.25C1247.01 499.31 1264.05 497.11 1271.85 489.85C1279.65 482.59 1347.75 465.32 1347.75 465.32Z" fill="white"/>
<path d="M1122.55 760.63C1150.93 760.63 1173.93 737.631 1173.93 709.26C1173.93 680.889 1150.93 657.89 1122.55 657.89C1094.17 657.89 1071.17 680.889 1071.17 709.26C1071.17 737.631 1094.17 760.63 1122.55 760.63Z" fill="#2E186A"/>
<path d="M1310.02 758.3C1334.73 758.3 1354.76 738.274 1354.76 713.57C1354.76 688.866 1334.73 668.84 1310.02 668.84C1285.31 668.84 1265.28 688.866 1265.28 713.57C1265.28 738.274 1285.31 758.3 1310.02 758.3Z" fill="#2E186A"/>
<path d="M1346.72 561.8C1355.62 557.75 1383.95 525.36 1397.73 498.39C1409.23 498.22 1425.86 506.09 1433.07 511.68C1400.36 563.37 1346.67 561.88 1346.72 561.8Z" fill="#2E186A"/>
<path d="M1340.49 654.63C1340.49 654.63 1379.99 638.13 1409.36 684.18" stroke="#2E186A" stroke-width="6" stroke-linecap="round" stroke-linejoin="round"/>
<path d="M1337.65 655.18C1337.65 655.18 1368.78 623.6 1411.24 663.31" stroke="#2E186A" stroke-width="6" stroke-linecap="round" stroke-linejoin="round"/>
<path d="M1450.62 657.88C1450.62 657.88 1412.5 793.88 1312.5 765.25C1312.5 765.25 1294.73 760.82 1286.25 749.25" stroke="#2E186A" stroke-width="6" stroke-linecap="round" stroke-linejoin="round"/>
<path d="M1326.44 672C1334.11 661.981 1340.78 651.233 1346.35 639.91C1356.19 620.28 1368.9 588.74 1368.9 588.74" stroke="#2E186A" stroke-width="6" stroke-linecap="round" stroke-linejoin="round"/>
<path d="M1349.35 422L1347.82 469.39C1347.9 472.502 1347.27 475.592 1345.98 478.426C1344.69 481.26 1342.78 483.764 1340.38 485.75C1331.19 493.39 1314.37 508.46 1293.23 532.31C1293.23 532.31 1266.87 504.24 1262.42 460.41L1349.35 422Z" fill="white" stroke="#2E186A" stroke-width="6" stroke-linecap="round" stroke-linejoin="round"/>
<path d="M1355.78 397.62C1355.78 397.62 1376.79 398.12 1372.9 416.85C1369.02 435.58 1345.97 424.64 1345.97 424.64L1349.18 398L1355.78 397.62Z" fill="white" stroke="#2E186A" stroke-width="6" stroke-linecap="round" stroke-linejoin="round"/>
<path d="M1296.34 338.26C1290.81 337.78 1252.98 335.26 1248.71 366.78C1244.44 398.3 1248.71 433.18 1252.18 449.11C1255.65 465.04 1328.08 457.98 1332.2 456.58C1336.33 455.18 1341.21 450.39 1341.21 450.39L1351.35 402C1351.35 402 1355.65 343.44 1296.34 338.26Z" fill="white" stroke="#2E186A" stroke-width="6" stroke-linecap="round" stroke-linejoin="round"/>
<path d="M1344.35 401.53C1340.8 404.99 1331.2 425 1328.84 434.34C1328.84 434.34 1305.36 426.34 1271.67 425.76C1271.67 425.76 1253.29 426.05 1245.96 428.17C1245.96 428.17 1247.4 461.28 1262.23 478.48C1277.05 495.68 1308.56 491.02 1323.38 480.78C1338.21 470.54 1340.66 465.63 1344.13 454.62C1347.6 443.61 1356.8 402.55 1356.8 402.55L1344.35 401.53Z" fill="#968BB4"/>
<path d="M1353.91 408.65C1353.91 408.65 1363.81 393.46 1367.68 377.65C1371.31 362.78 1364.46 347.15 1350.68 340.43C1339.18 334.79 1330.6 339.13 1330.6 339.13C1330.6 339.13 1342.93 318.35 1324.6 299.87C1321.41 296.652 1317.59 294.117 1313.38 292.421C1309.18 290.724 1304.67 289.9 1300.14 290C1293.86 290.032 1287.74 291.893 1282.51 295.355C1277.28 298.817 1273.18 303.729 1270.7 309.49C1270.7 309.49 1246.87 265.28 1197.54 291.17C1192.54 293.78 1186.94 301.1 1184.24 306.03C1167.85 335.91 1221.25 371.62 1249.16 374.54C1279.78 377.76 1297.73 372.76 1307.63 365.31C1300.27 369.65 1308.34 415.5 1353.91 408.65Z" fill="#2E186A"/>
<path d="M1294.17 448.77C1294.17 448.77 1289.41 459.33 1278.49 454.83" stroke="#2E186A" stroke-width="8" stroke-linecap="round" stroke-linejoin="round"/>
<path d="M1271.81 413.02L1265.67 437.93L1278.56 439.28" stroke="#2E186A" stroke-width="8" stroke-linecap="round" stroke-linejoin="round"/>
<path d="M1262.4 409.246C1262.41 406.722 1261.1 404.67 1259.47 404.663C1257.84 404.656 1256.51 406.696 1256.5 409.22C1256.49 411.744 1257.8 413.796 1259.43 413.803C1261.06 413.81 1262.39 411.77 1262.4 409.246Z" fill="#2E186A"/>
<path d="M1290.85 408.864C1290.86 406.34 1289.55 404.289 1287.92 404.282C1286.29 404.274 1284.96 406.315 1284.95 408.839C1284.94 411.362 1286.25 413.414 1287.88 413.421C1289.51 413.428 1290.84 411.388 1290.85 408.864Z" fill="#2E186A"/>
<path d="M1302.53 392C1301.04 390.082 1299.07 388.597 1296.82 387.7C1294.57 386.803 1292.12 386.527 1289.72 386.9" stroke="#2E186A" stroke-width="8" stroke-linecap="round" stroke-linejoin="round"/>
<path d="M1262.59 386.31C1262.59 386.31 1254.4 384.14 1252.32 390.83" stroke="#2E186A" stroke-width="8" stroke-linecap="round" stroke-linejoin="round"/>
<path d="M1285.6 487.36L1139.44 486.73C1136.11 486.716 1132.8 487.358 1129.72 488.621C1126.63 489.883 1123.82 491.741 1121.45 494.089C1119.09 496.436 1117.2 499.227 1115.91 502.302C1114.62 505.377 1113.95 508.676 1113.94 512.01L1113.79 546.45C1097.16 546.576 1081.26 553.248 1069.52 565.021C1057.78 576.793 1051.16 592.717 1051.09 609.338C1051.02 625.96 1057.5 641.939 1069.14 653.812C1080.78 665.684 1096.62 672.492 1113.25 672.76L1113.15 695.55C1113.13 702.276 1115.78 708.734 1120.52 713.506C1125.26 718.278 1131.71 720.974 1138.43 721L1284.59 721.63C1287.93 721.644 1291.23 721.002 1294.32 719.74C1297.4 718.478 1300.21 716.621 1302.58 714.274C1304.94 711.928 1306.83 709.138 1308.11 706.064C1309.4 702.99 1310.07 699.693 1310.09 696.36L1310.88 512.82C1310.9 506.094 1308.25 499.635 1303.51 494.861C1298.77 490.087 1292.33 487.389 1285.6 487.36Z" fill="#FEBA91"/>
<path d="M1102.89 708.32C1103.03 707.88 1124.97 682.26 1125.71 682.86C1126.45 683.46 1156.51 696.86 1157.17 697.91C1157.83 698.96 1158.99 704.99 1155.96 710.63C1152.93 716.27 1149.6 729.14 1135.95 730.15C1122.31 731.16 1102.89 708.32 1102.89 708.32Z" fill="white"/>
<path d="M1143.02 688.75C1143.02 688.75 1145.58 671.09 1141.5 666.9C1137.41 662.71 1114.49 701.9 1106.6 704.62" fill="white"/>
<path d="M1143.02 688.75C1143.02 688.75 1145.58 671.09 1141.5 666.9C1137.41 662.71 1114.49 701.9 1106.6 704.62" stroke="#2E186A" stroke-width="6" stroke-linecap="round" stroke-linejoin="round"/>
<path d="M1155.19 691.85C1155.19 691.85 1160.66 678.94 1153.43 672.7C1146.2 666.46 1128.36 701.76 1120.53 706.33" fill="white"/>
<path d="M1155.19 691.85C1155.19 691.85 1160.66 678.94 1153.43 672.7C1146.2 666.46 1128.36 701.76 1120.53 706.33" stroke="#2E186A" stroke-width="6" stroke-linecap="round" stroke-linejoin="round"/>
<path d="M1158.44 706.67C1158.44 706.67 1167.68 683.56 1161.24 678.67C1154.8 673.78 1144.36 703.76 1131.83 710.67" fill="white"/>
<path d="M1158.44 706.67C1158.44 706.67 1167.68 683.56 1161.24 678.67C1154.8 673.78 1144.36 703.76 1131.83 710.67" stroke="#2E186A" stroke-width="6" stroke-linecap="round" stroke-linejoin="round"/>
<path d="M1108.29 703.7C1107.26 698.719 1107.77 693.542 1109.76 688.86C1112.03 683.5 1114.76 676.23 1115 671.57C1115.45 663.47 1102.19 667.28 1101.64 672.3C1101.09 677.32 1098.57 677.05 1092.76 682.16C1086.95 687.27 1088.03 707.7 1088.03 707.7C1088.03 707.7 1082.93 718.17 1099.37 730.7C1115.82 743.23 1133.38 733.48 1133.38 733.48C1133.38 733.48 1165.2 721.75 1165.19 698.86C1165.18 675.97 1156.76 709.34 1140.85 718.74" fill="white"/>
<path d="M1108.29 703.7C1107.26 698.719 1107.77 693.542 1109.76 688.86C1112.03 683.5 1114.76 676.23 1115 671.57C1115.45 663.47 1102.19 667.28 1101.64 672.3C1101.09 677.32 1098.57 677.05 1092.76 682.16C1086.95 687.27 1088.03 707.7 1088.03 707.7C1088.03 707.7 1082.93 718.17 1099.37 730.7C1115.82 743.23 1133.38 733.48 1133.38 733.48C1133.38 733.48 1165.2 721.75 1165.19 698.86C1165.18 675.97 1156.76 709.34 1140.85 718.74" stroke="#2E186A" stroke-width="6" stroke-linecap="round" stroke-linejoin="round"/>
<path d="M1308.14 711.25C1308 710.81 1286.06 685.19 1285.31 685.79C1284.56 686.39 1254.51 699.79 1253.85 700.79C1253.19 701.79 1252.03 707.87 1255.06 713.51C1258.1 719.15 1261.44 732.02 1275.07 733.03C1288.7 734.04 1308.14 711.25 1308.14 711.25Z" fill="white"/>
<path d="M1268.01 691.68C1268.01 691.68 1265.45 674.02 1269.53 669.83C1273.61 665.64 1296.54 704.83 1304.43 707.55" fill="white"/>
<path d="M1268.01 691.68C1268.01 691.68 1265.45 674.02 1269.53 669.83C1273.61 665.64 1296.54 704.83 1304.43 707.55" stroke="#2E186A" stroke-width="6" stroke-linecap="round" stroke-linejoin="round"/>
<path d="M1255.83 694.78C1255.83 694.78 1250.36 681.87 1257.61 675.63C1264.85 669.39 1282.61 704.69 1290.5 709.26" fill="white"/>
<path d="M1255.83 694.78C1255.83 694.78 1250.36 681.87 1257.61 675.63C1264.85 669.39 1282.61 704.69 1290.5 709.26" stroke="#2E186A" stroke-width="6" stroke-linecap="round" stroke-linejoin="round"/>
<path d="M1252.58 709.6C1252.58 709.6 1243.34 686.49 1249.78 681.6C1256.22 676.71 1266.68 706.68 1279.19 713.6" fill="white"/>
<path d="M1252.58 709.6C1252.58 709.6 1243.34 686.49 1249.78 681.6C1256.22 676.71 1266.68 706.68 1279.19 713.6" stroke="#2E186A" stroke-width="6" stroke-linecap="round" stroke-linejoin="round"/>
<path d="M1302.78 706.63C1303.81 701.649 1303.3 696.472 1301.31 691.79C1299.05 686.43 1296.31 679.16 1296.07 674.51C1295.61 666.4 1308.87 670.21 1309.43 675.23C1309.99 680.25 1312.49 679.98 1318.3 685.1C1324.11 690.22 1323.03 710.64 1323.03 710.64C1323.03 710.64 1328.13 721.11 1311.69 733.64C1295.24 746.17 1277.68 736.43 1277.68 736.43C1277.68 736.43 1245.86 724.69 1245.87 701.8C1245.88 678.91 1254.3 712.28 1270.21 721.68" fill="white"/>
<path d="M1302.78 706.63C1303.81 701.649 1303.3 696.472 1301.31 691.79C1299.05 686.43 1296.31 679.16 1296.07 674.51C1295.61 666.4 1308.87 670.21 1309.43 675.23C1309.99 680.25 1312.49 679.98 1318.3 685.1C1324.11 690.22 1323.03 710.64 1323.03 710.64C1323.03 710.64 1328.13 721.11 1311.69 733.64C1295.24 746.17 1277.68 736.43 1277.68 736.43C1277.68 736.43 1245.86 724.69 1245.87 701.8C1245.88 678.91 1254.3 712.28 1270.21 721.68" stroke="#2E186A" stroke-width="6" stroke-linecap="round" stroke-linejoin="round"/>
<path d="M3.00076 784.46H1660" stroke="#2E186A" stroke-width="6" stroke-linecap="round" stroke-linejoin="round"/>
</g>
<defs>
<clipPath id="clip0_13_106">
<rect width="1663" height="787" fill="white"/>
</clipPath>
</defs>
</svg>
